<svg width="255" height="296" viewBox="0 0 255 296" fill="none" xmlns="http://www.w3.org/2000/svg">
    <path
        d="M10.582 23H7.79297V16.4272H4.11182V23H1.32275V8.00879H4.11182V13.9663H7.79297V8.00879H10.582V23ZM22.0951 23H15.3378V8.00879H22.0951V10.4185H18.1269V13.9868H21.808V16.4067H18.1269V20.5596H22.0951V23ZM31.7317 23L28.8812 10.2339H28.7684C28.8982 11.2183 28.9632 12.1206 28.9632 12.9409V23H26.3792V8.00879H30.6653L33.2288 19.7905H33.3108L35.8538 8.00879H40.2015V23H37.556V12.8384C37.556 11.9976 37.6038 11.1362 37.6995 10.2544H37.6175L34.7771 23H31.7317ZM54.2062 23H51.4172V16.4272H47.736V23H44.947V8.00879H47.736V13.9663H51.4172V8.00879H54.2062V23ZM69.2774 15.4839C69.2774 17.9653 68.8126 19.8726 67.8829 21.2056C66.9532 22.5386 65.6236 23.2051 63.8941 23.2051C62.1578 23.2051 60.8248 22.542 59.8951 21.2158C58.9654 19.8828 58.5006 17.9653 58.5006 15.4634C58.5006 12.9819 58.9654 11.0815 59.8951 9.76221C60.8248 8.43604 62.1646 7.77295 63.9146 7.77295C65.6441 7.77295 66.9703 8.43945 67.8932 9.77246C68.816 11.0986 69.2774 13.0024 69.2774 15.4839ZM61.3512 15.4839C61.3512 17.1929 61.5665 18.4951 61.9972 19.3906C62.4278 20.2861 63.0602 20.7339 63.8941 20.7339C65.5758 20.7339 66.4166 18.9839 66.4166 15.4839C66.4166 11.9839 65.5826 10.2339 63.9146 10.2339C63.067 10.2339 62.4278 10.6816 61.9972 11.5771C61.5665 12.4658 61.3512 13.7681 61.3512 15.4839ZM80.2676 8.00879V10.4185H76.3403V23H73.5718V8.00879H80.2676ZM94.2108 15.4839C94.2108 17.9653 93.746 19.8726 92.8163 21.2056C91.8866 22.5386 90.557 23.2051 88.8275 23.2051C87.0912 23.2051 85.7582 22.542 84.8285 21.2158C83.8988 19.8828 83.434 17.9653 83.434 15.4634C83.434 12.9819 83.8988 11.0815 84.8285 9.76221C85.7582 8.43604 87.098 7.77295 88.848 7.77295C90.5775 7.77295 91.9037 8.43945 92.8266 9.77246C93.7494 11.0986 94.2108 13.0024 94.2108 15.4839ZM86.2846 15.4839C86.2846 17.1929 86.4999 18.4951 86.9306 19.3906C87.3612 20.2861 87.9936 20.7339 88.8275 20.7339C90.5092 20.7339 91.35 18.9839 91.35 15.4839C91.35 11.9839 90.516 10.2339 88.848 10.2339C88.0004 10.2339 87.3612 10.6816 86.9306 11.5771C86.4999 12.4658 86.2846 13.7681 86.2846 15.4839ZM116.109 15.4839C116.109 17.9653 115.644 19.8726 114.715 21.2056C113.785 22.5386 112.455 23.2051 110.726 23.2051C108.989 23.2051 107.656 22.542 106.727 21.2158C105.797 19.8828 105.332 17.9653 105.332 15.4634C105.332 12.9819 105.797 11.0815 106.727 9.76221C107.656 8.43604 108.996 7.77295 110.746 7.77295C112.476 7.77295 113.802 8.43945 114.725 9.77246C115.648 11.0986 116.109 13.0024 116.109 15.4839ZM108.183 15.4839C108.183 17.1929 108.398 18.4951 108.829 19.3906C109.259 20.2861 109.892 20.7339 110.726 20.7339C112.407 20.7339 113.248 18.9839 113.248 15.4839C113.248 11.9839 112.414 10.2339 110.746 10.2339C109.899 10.2339 109.259 10.6816 108.829 11.5771C108.398 12.4658 108.183 13.7681 108.183 15.4839ZM136.951 20.6519H138.653V27.2861H135.946V23H127.692V8.00879H130.481V20.5391H134.162V8.00879H136.951V20.6519ZM142.404 8.00879H144.988V16.2427C144.988 17.0972 144.923 17.9414 144.793 18.7754H144.906L149.479 8.00879H152.904V23H150.341V14.7866C150.341 13.7749 150.419 12.8862 150.577 12.1206H150.443L145.85 23H142.404V8.00879ZM162.356 7.79346H164.981V9.63916H165.361C166.906 9.63916 168.102 10.1313 168.95 11.1157C169.804 12.1001 170.231 13.457 170.231 15.1865C170.231 16.3418 170.03 17.3501 169.626 18.2114C169.223 19.0659 168.635 19.729 167.863 20.2007C167.097 20.6655 166.171 20.8979 165.084 20.8979H164.981V23.2051H162.356V20.8979H162.223C160.589 20.8979 159.325 20.4023 158.429 19.4111C157.533 18.4199 157.086 17.0391 157.086 15.2686C157.086 14.1611 157.284 13.1802 157.68 12.3257C158.077 11.4712 158.648 10.8115 159.393 10.3467C160.138 9.875 161.013 9.63916 162.018 9.63916H162.356V7.79346ZM164.981 18.7959H165.063C165.802 18.7959 166.369 18.4814 166.765 17.8525C167.169 17.2236 167.37 16.3418 167.37 15.207C167.37 14.0928 167.186 13.2417 166.817 12.6538C166.454 12.0591 165.931 11.7617 165.248 11.7617H164.981V18.7959ZM162.356 11.7617H162.059C161.375 11.7617 160.849 12.0659 160.48 12.6743C160.117 13.2759 159.936 14.1201 159.936 15.207C159.936 16.335 160.138 17.2168 160.541 17.8525C160.951 18.4814 161.522 18.7959 162.254 18.7959H162.356V11.7617ZM182.585 12.623C182.585 14.2158 182.182 15.4395 181.375 16.2939C180.575 17.1416 179.417 17.5654 177.899 17.5654H177.202V23H174.413V8.00879H178.217C181.129 8.00879 182.585 9.54688 182.585 12.623ZM177.202 15.1455H177.735C178.419 15.1455 178.928 14.9575 179.263 14.5815C179.598 14.2056 179.765 13.5903 179.765 12.7358C179.765 11.9497 179.612 11.3687 179.304 10.9927C178.996 10.6099 178.521 10.4185 177.879 10.4185H177.202V15.1455ZM193.063 23L192.201 19.2163H188.295L187.433 23H184.644L188.356 7.94727H192.14L195.862 23H193.063ZM191.678 16.7451L190.879 13.2588C190.831 13.0469 190.721 12.5171 190.55 11.6694C190.386 10.8149 190.287 10.2441 190.253 9.95703C190.164 10.5449 190.051 11.1943 189.915 11.9053C189.778 12.6094 189.422 14.2227 188.848 16.7451H191.678ZM207.898 23H204.996L202.853 17.627L200.864 23H197.962L201.387 15.207L198.218 8.00879H201.028L203.007 12.9409L204.719 8.00879H207.642L204.473 15.3301L207.898 23Z"
        fill="white" />
    <path
        d="M5.69531 165H3.60156V158.297C3.60156 157.568 3.63802 156.729 3.71094 155.781C3.67448 155.833 3.53906 155.992 3.30469 156.258C3.07552 156.523 2.625 157 1.95312 157.688L0.765625 156.391L3.80469 153.578H5.69531V165ZM8.78438 160.148C8.78438 157.82 9.14635 156.12 9.87031 155.047C10.5943 153.969 11.6984 153.43 13.1828 153.43C13.4172 153.43 13.6516 153.445 13.8859 153.477C14.1203 153.503 14.2974 153.531 14.4172 153.562V155.32C14.0578 155.237 13.7036 155.195 13.3547 155.195C12.7609 155.195 12.274 155.326 11.8938 155.586C11.5135 155.846 11.2245 156.237 11.0266 156.758C10.8286 157.273 10.7089 158 10.6672 158.938H10.7531C10.9354 158.505 11.1854 158.18 11.5031 157.961C11.8208 157.737 12.188 157.625 12.6047 157.625C13.3703 157.625 13.9667 157.938 14.3938 158.562C14.8208 159.182 15.0344 160.07 15.0344 161.227C15.0344 162.435 14.7531 163.393 14.1906 164.102C13.6281 164.805 12.8651 165.156 11.9016 165.156C10.8807 165.156 10.1047 164.734 9.57344 163.891C9.0474 163.047 8.78438 161.799 8.78438 160.148ZM11.9172 163.367C12.2297 163.367 12.4797 163.195 12.6672 162.852C12.8599 162.508 12.9563 161.971 12.9563 161.242C12.9563 160.654 12.8703 160.19 12.6984 159.852C12.5318 159.508 12.2766 159.336 11.9328 159.336C11.6255 159.336 11.3755 159.495 11.1828 159.812C10.9901 160.13 10.8938 160.531 10.8938 161.016C10.8938 161.776 10.9823 162.359 11.1594 162.766C11.3417 163.167 11.5943 163.367 11.9172 163.367ZM23.2406 159.289C23.2406 161.357 22.9906 162.852 22.4906 163.773C21.9958 164.695 21.1964 165.156 20.0922 165.156C18.988 165.156 18.1938 164.693 17.7094 163.766C17.2302 162.839 16.9906 161.346 16.9906 159.289C16.9906 157.227 17.2432 155.729 17.7484 154.797C18.2536 153.865 19.0453 153.398 20.1234 153.398C21.2224 153.398 22.0167 153.854 22.5063 154.766C22.9958 155.677 23.2406 157.185 23.2406 159.289ZM19.1156 159.289C19.1156 160.888 19.1833 161.966 19.3188 162.523C19.4594 163.076 19.7224 163.352 20.1078 163.352C20.3682 163.352 20.5688 163.232 20.7094 162.992C20.8552 162.753 20.9594 162.357 21.0219 161.805C21.0844 161.247 21.1156 160.409 21.1156 159.289C21.1156 157.716 21.0427 156.643 20.8969 156.07C20.751 155.497 20.488 155.211 20.1078 155.211C19.7224 155.211 19.4594 155.497 19.3188 156.07C19.1833 156.638 19.1156 157.711 19.1156 159.289ZM31.4469 159.289C31.4469 161.357 31.1969 162.852 30.6969 163.773C30.2021 164.695 29.4026 165.156 28.2984 165.156C27.1943 165.156 26.4 164.693 25.9156 163.766C25.4365 162.839 25.1969 161.346 25.1969 159.289C25.1969 157.227 25.4495 155.729 25.9547 154.797C26.4599 153.865 27.2516 153.398 28.3297 153.398C29.4286 153.398 30.2229 153.854 30.7125 154.766C31.2021 155.677 31.4469 157.185 31.4469 159.289ZM27.3219 159.289C27.3219 160.888 27.3896 161.966 27.525 162.523C27.6656 163.076 27.9286 163.352 28.3141 163.352C28.5745 163.352 28.775 163.232 28.9156 162.992C29.0615 162.753 29.1656 162.357 29.2281 161.805C29.2906 161.247 29.3219 160.409 29.3219 159.289C29.3219 157.716 29.249 156.643 29.1031 156.07C28.9573 155.497 28.6943 155.211 28.3141 155.211C27.9286 155.211 27.6656 155.497 27.525 156.07C27.3896 156.638 27.3219 157.711 27.3219 159.289Z"
        fill="#D1A954" />
    <path
        d="M44.9844 156.297V165H42.8906V157.977H40.5391V165H38.4609V156.297H44.9844ZM54.0031 160.633C54.0031 162.06 53.701 163.172 53.0969 163.969C52.4927 164.76 51.6646 165.156 50.6125 165.156C49.9458 165.156 49.3573 164.974 48.8469 164.609C48.3365 164.245 47.9432 163.721 47.6672 163.039C47.3911 162.352 47.2531 161.549 47.2531 160.633C47.2531 159.221 47.5526 158.12 48.1516 157.328C48.7505 156.531 49.5812 156.133 50.6437 156.133C51.6698 156.133 52.4849 156.539 53.0891 157.352C53.6984 158.159 54.0031 159.253 54.0031 160.633ZM49.3781 160.633C49.3781 161.539 49.4771 162.224 49.675 162.688C49.8729 163.151 50.1906 163.383 50.6281 163.383C51.4615 163.383 51.8781 162.466 51.8781 160.633C51.8781 159.721 51.7766 159.042 51.5734 158.594C51.3755 158.141 51.0604 157.914 50.6281 157.914C50.1906 157.914 49.8729 158.141 49.675 158.594C49.4771 159.042 49.3781 159.721 49.3781 160.633ZM59.1391 165.156C58.1026 165.156 57.3135 164.779 56.7719 164.023C56.2302 163.268 55.9594 162.159 55.9594 160.695C55.9594 159.164 56.2146 158.021 56.725 157.266C57.2406 156.51 58.0349 156.133 59.1078 156.133C59.4307 156.133 59.7693 156.18 60.1234 156.273C60.4776 156.367 60.7953 156.503 61.0766 156.68L60.4828 158.297C60.0505 158.042 59.6677 157.914 59.3344 157.914C58.8917 157.914 58.5714 158.146 58.3734 158.609C58.1807 159.068 58.0844 159.758 58.0844 160.68C58.0844 161.581 58.1807 162.255 58.3734 162.703C58.5661 163.146 58.8812 163.367 59.3187 163.367C59.8396 163.367 60.3839 163.185 60.9516 162.82V164.648C60.4047 164.987 59.8005 165.156 59.1391 165.156ZM67.2672 165L66.8531 163.812H66.8063C66.499 164.323 66.1813 164.674 65.8531 164.867C65.525 165.06 65.1109 165.156 64.6109 165.156C63.9703 165.156 63.4651 164.917 63.0953 164.438C62.7307 163.958 62.5484 163.292 62.5484 162.438C62.5484 161.521 62.7984 160.841 63.2984 160.398C63.8036 159.951 64.5563 159.703 65.5563 159.656L66.7125 159.609V158.984C66.7125 158.172 66.3609 157.766 65.6578 157.766C65.137 157.766 64.538 157.969 63.8609 158.375L63.1422 156.938C64.0068 156.391 64.9469 156.117 65.9625 156.117C66.8844 156.117 67.5849 156.383 68.0641 156.914C68.5484 157.44 68.7906 158.188 68.7906 159.156V165H67.2672ZM65.4625 163.531C65.8427 163.531 66.1448 163.362 66.3688 163.023C66.5979 162.68 66.7125 162.224 66.7125 161.656V160.922L66.0719 160.953C65.5979 160.979 65.249 161.115 65.025 161.359C64.8063 161.604 64.6969 161.969 64.6969 162.453C64.6969 163.172 64.9521 163.531 65.4625 163.531ZM75.4734 163.367V157.945H74.45C74.2521 160.195 73.8745 162.003 73.3172 163.367H75.4734ZM78.7078 168.102H76.6453V165H72.6766V168.102H70.6141V163.367H71.1375C71.5542 162.529 71.8849 161.503 72.1297 160.289C72.3745 159.076 72.5307 157.745 72.5984 156.297H77.575V163.367H78.7078V168.102ZM87.0625 160.633C87.0625 162.06 86.7604 163.172 86.1562 163.969C85.5521 164.76 84.724 165.156 83.6719 165.156C83.0052 165.156 82.4167 164.974 81.9062 164.609C81.3958 164.245 81.0026 163.721 80.7266 163.039C80.4505 162.352 80.3125 161.549 80.3125 160.633C80.3125 159.221 80.612 158.12 81.2109 157.328C81.8099 156.531 82.6406 156.133 83.7031 156.133C84.7292 156.133 85.5443 156.539 86.1484 157.352C86.7578 158.159 87.0625 159.253 87.0625 160.633ZM82.4375 160.633C82.4375 161.539 82.5365 162.224 82.7344 162.688C82.9323 163.151 83.25 163.383 83.6875 163.383C84.5208 163.383 84.9375 162.466 84.9375 160.633C84.9375 159.721 84.8359 159.042 84.6328 158.594C84.4349 158.141 84.1198 157.914 83.6875 157.914C83.25 157.914 82.9323 158.141 82.7344 158.594C82.5365 159.042 82.4375 159.721 82.4375 160.633ZM91.3234 156.297V159.531C91.3234 159.932 91.3885 160.224 91.5188 160.406C91.649 160.589 91.8547 160.68 92.1359 160.68C92.4276 160.68 92.6828 160.62 92.9016 160.5C93.1255 160.38 93.3495 160.232 93.5734 160.055V156.297H95.675V165H93.5734V161.477C92.8547 162.034 92.1359 162.312 91.4172 162.312C90.7036 162.312 90.162 162.094 89.7922 161.656C89.4224 161.219 89.2375 160.568 89.2375 159.703V156.297H91.3234ZM100.295 156.297V159.688H102.647V156.297H104.741V165H102.647V161.352H100.295V165H98.2172V156.297H100.295ZM109.377 159.703H110.002C111.153 159.703 112.002 159.914 112.548 160.336C113.101 160.758 113.377 161.396 113.377 162.25C113.377 164.083 112.231 165 109.939 165H107.298V156.297H109.377V159.703ZM111.244 162.297C111.244 161.927 111.129 161.661 110.9 161.5C110.676 161.339 110.322 161.258 109.838 161.258H109.377V163.445H109.869C110.311 163.445 110.65 163.359 110.884 163.188C111.124 163.01 111.244 162.714 111.244 162.297ZM116.689 165H114.595V156.297H116.689V165ZM121.169 156.297V160.328C121.169 160.828 121.106 161.659 120.981 162.82L123.809 156.297H126.356V165H124.419V160.906C124.419 160.292 124.479 159.464 124.598 158.422L121.762 165H119.239V156.297H121.169ZM125.645 152.773C125.541 153.648 125.255 154.289 124.786 154.695C124.322 155.102 123.637 155.305 122.731 155.305C121.846 155.305 121.182 155.107 120.739 154.711C120.296 154.31 120.033 153.664 119.95 152.773H121.677C121.734 153.294 121.843 153.646 122.005 153.828C122.171 154.01 122.429 154.102 122.778 154.102C123.122 154.102 123.377 153.997 123.544 153.789C123.716 153.581 123.83 153.242 123.887 152.773H125.645ZM142.675 165H140.816V157.93C140.665 158.773 140.451 159.721 140.175 160.773L139.042 165H137.277L136.144 160.758C135.899 159.846 135.685 158.904 135.503 157.93V165H133.683V156.297H136.675L137.73 160.359C137.959 161.266 138.097 162.109 138.144 162.891C138.165 162.625 138.219 162.253 138.308 161.773C138.402 161.294 138.506 160.823 138.62 160.359L139.698 156.297H142.675V165ZM148.428 165.156C147.34 165.156 146.48 164.771 145.85 164C145.225 163.224 144.913 162.128 144.913 160.711C144.913 159.273 145.196 158.151 145.764 157.344C146.332 156.536 147.123 156.133 148.139 156.133C149.087 156.133 149.834 156.479 150.381 157.172C150.928 157.859 151.202 158.826 151.202 160.07V161.18H147.022C147.038 161.956 147.196 162.534 147.498 162.914C147.801 163.289 148.217 163.477 148.748 163.477C149.426 163.477 150.118 163.266 150.827 162.844V164.555C150.16 164.956 149.36 165.156 148.428 165.156ZM148.123 157.734C147.827 157.734 147.582 157.893 147.389 158.211C147.196 158.523 147.084 159.01 147.053 159.672H149.163C149.152 159.036 149.056 158.555 148.873 158.227C148.691 157.898 148.441 157.734 148.123 157.734ZM156.252 165.156C155.215 165.156 154.426 164.779 153.884 164.023C153.343 163.268 153.072 162.159 153.072 160.695C153.072 159.164 153.327 158.021 153.837 157.266C154.353 156.51 155.147 156.133 156.22 156.133C156.543 156.133 156.882 156.18 157.236 156.273C157.59 156.367 157.908 156.503 158.189 156.68L157.595 158.297C157.163 158.042 156.78 157.914 156.447 157.914C156.004 157.914 155.684 158.146 155.486 158.609C155.293 159.068 155.197 159.758 155.197 160.68C155.197 161.581 155.293 162.255 155.486 162.703C155.679 163.146 155.994 163.367 156.431 163.367C156.952 163.367 157.496 163.185 158.064 162.82V164.648C157.517 164.987 156.913 165.156 156.252 165.156ZM165.473 156.297V157.977H163.536V165H161.458V157.977H159.52V156.297H165.473Z"
        fill="white" />
    <path
        d="M27.6673 75.5379H26.7229V74.5936C26.7229 74.0271 26.2637 73.5677 25.697 73.5677C25.1303 73.5677 24.6711 74.0271 24.6711 74.5936V75.5379H23.7267C23.16 75.5379 22.7008 75.9973 22.7008 76.5639C22.7008 77.1304 23.16 77.5898 23.7267 77.5898H24.6711V78.5343C24.6711 79.1008 25.1303 79.5602 25.697 79.5602C26.2637 79.5602 26.7229 79.1008 26.7229 78.5343V77.5898H27.6673C28.234 77.5898 28.6932 77.1304 28.6932 76.5639C28.6932 75.9973 28.234 75.5379 27.6673 75.5379Z"
        fill="white" />
    <path
        d="M46.2719 75.5379H45.3276V74.5936C45.3276 74.0271 44.8683 73.5677 44.3016 73.5677C43.7349 73.5677 43.2757 74.0271 43.2757 74.5936V75.5379H42.3314C41.7647 75.5379 41.3054 75.9973 41.3054 76.5639C41.3054 77.1304 41.7647 77.5898 42.3314 77.5898H43.2757V78.5343C43.2757 79.1008 43.7349 79.5602 44.3016 79.5602C44.8683 79.5602 45.3276 79.1008 45.3276 78.5343V77.5898H46.2719C46.8386 77.5898 47.2978 77.1304 47.2978 76.5639C47.2978 75.9973 46.8386 75.5379 46.2719 75.5379Z"
        fill="white" />
    <path
        d="M27.6673 89.6295H26.7229V88.6852C26.7229 88.1186 26.2637 87.6592 25.697 87.6592C25.1303 87.6592 24.6711 88.1186 24.6711 88.6852V89.6295H23.7267C23.16 89.6295 22.7008 90.0889 22.7008 90.6555C22.7008 91.222 23.16 91.6814 23.7267 91.6814H24.6711V92.6257C24.6711 93.1923 25.1303 93.6517 25.697 93.6517C26.2637 93.6517 26.7229 93.1923 26.7229 92.6257V91.6814H27.6673C28.234 91.6814 28.6932 91.222 28.6932 90.6555C28.6932 90.0889 28.234 89.6295 27.6673 89.6295Z"
        fill="white" />
    <path
        d="M46.2719 89.6295H45.3276V88.6852C45.3276 88.1186 44.8684 87.6592 44.3017 87.6592C43.735 87.6592 43.2757 88.1186 43.2757 88.6852V89.6295H42.3314C41.7647 89.6295 41.3055 90.0889 41.3055 90.6555C41.3055 91.222 41.7647 91.6814 42.3314 91.6814H43.2757V92.6257C43.2757 93.1923 43.735 93.6517 44.3017 93.6517C44.8684 93.6517 45.3276 93.1923 45.3276 92.6257V91.6814H46.2719C46.8386 91.6814 47.2979 91.222 47.2979 90.6555C47.2979 90.0889 46.8386 89.6295 46.2719 89.6295Z"
        fill="white" />
    <path
        d="M63.456 92.0518H49.8792C48.7194 92.0518 47.7757 92.9953 47.7757 94.1551V96.9327C47.7757 98.0924 48.7192 99.0359 49.8792 99.0359H50.0764V103.68C49.1632 102.961 48.0125 102.53 46.7625 102.53H22.9675C21.7175 102.53 20.5669 102.96 19.6537 103.68V99.026H20.1209C21.2807 99.026 22.2243 98.0825 22.2243 96.9227V94.1451C22.2243 92.9853 21.2808 92.0418 20.1209 92.0418H6.54403C5.38425 92.0418 4.44061 92.9853 4.44061 94.1451V96.9227C4.44061 98.0825 5.38411 99.026 6.54403 99.026H7.0112V112.121C7.0112 114.215 8.62462 115.939 10.674 116.118V118.164C10.674 119.789 11.9962 121.112 13.6213 121.112H15.9723V130.948H14.5034C13.9367 130.948 13.4775 131.407 13.4775 131.974C13.4775 132.541 13.9367 133 14.5034 133H24.7546C25.3213 133 25.7805 132.541 25.7805 131.974C25.7805 131.407 25.3213 130.948 24.7546 130.948H23.2857V121.112H46.4446V130.948H44.9757C44.409 130.948 43.9498 131.407 43.9498 131.974C43.9498 132.541 44.409 133 44.9757 133H55.2271C55.7938 133 56.253 132.541 56.253 131.974C56.253 131.407 55.7938 130.948 55.2271 130.948H53.758V121.112H56.1092C57.7342 121.112 59.0563 119.789 59.0563 118.164V116.118C61.1057 115.94 62.7191 114.215 62.7191 112.121V99.0359H63.4563C64.6161 99.0359 65.5597 98.0924 65.5597 96.9327V94.1551C65.5595 92.9954 64.616 92.0518 63.456 92.0518ZM22.9675 104.582H46.7626C48.59 104.582 50.0766 106.068 50.0766 107.896V114.083H19.6536V107.896C19.6536 106.068 21.1403 104.582 22.9675 104.582ZM6.54403 96.9741C6.51573 96.9741 6.49263 96.951 6.49263 96.9227V94.1451C6.49263 94.1168 6.51573 94.0937 6.54403 94.0937H20.1209C20.1492 94.0937 20.1723 94.1168 20.1723 94.1451V96.9227C20.1723 96.951 20.1492 96.9741 20.1209 96.9741H6.54403ZM11.0251 114.083C9.94328 114.083 9.06308 113.202 9.06308 112.121V99.0261H17.6017V114.083H11.0251ZM21.2337 130.948H18.0243V121.112H21.2337V130.948ZM51.7059 130.948H48.4965V121.112H51.7059V130.948ZM57.0041 118.164C57.0041 118.658 56.6026 119.06 56.109 119.06H13.6213C13.1276 119.06 12.7259 118.658 12.7259 118.164V116.134H57.0041V118.164ZM60.667 112.121C60.667 113.202 59.7868 114.083 58.7049 114.083H52.1285V99.0361H60.667V112.121ZM63.5076 96.9328C63.5076 96.9611 63.4845 96.9842 63.4562 96.9842H49.8793C49.851 96.9842 49.8279 96.9611 49.8279 96.9328V94.1552C49.8279 94.1269 49.851 94.1038 49.8793 94.1038H63.4562C63.4845 94.1038 63.5076 94.1269 63.5076 94.1552V96.9328Z"
        fill="white" />
    <path
        d="M57.6956 71.4551C57.6959 66.793 53.9029 63 49.2408 63H20.4864C15.8242 63 12.0313 66.793 12.0313 71.4551V88.269C12.0314 88.8357 12.4907 89.2949 13.0574 89.2949C13.6241 89.2949 14.0833 88.8355 14.0833 88.269V71.4551C14.0833 67.9243 16.9558 65.0519 20.4864 65.0519H49.2406C52.7712 65.0519 55.6437 67.9243 55.6437 71.4599L55.7232 88.2737C55.7259 88.8387 56.1846 89.2949 56.749 89.2949C56.7506 89.2949 56.7522 89.2949 56.7539 89.2949C57.3206 89.2922 57.7778 88.8307 57.775 88.264L57.6956 71.4551Z"
        fill="white" />
    <path
        d="M6.47656 283.148C6.47656 283.867 6.29948 284.471 5.94531 284.961C5.59115 285.445 5.09115 285.781 4.44531 285.969V286.031C5.16406 286.146 5.71875 286.427 6.10938 286.875C6.50521 287.323 6.70312 287.932 6.70312 288.703C6.70312 289.755 6.375 290.594 5.71875 291.219C5.06771 291.844 4.17448 292.156 3.03906 292.156C2.02865 292.156 1.17969 291.977 0.492188 291.617V289.711C0.835938 289.919 1.20833 290.083 1.60938 290.203C2.01042 290.323 2.39583 290.383 2.76562 290.383C3.36979 290.383 3.82552 290.245 4.13281 289.969C4.4401 289.688 4.59375 289.245 4.59375 288.641C4.59375 287.5 3.89323 286.93 2.49219 286.93H1.84375V285.344H2.46094C3.08073 285.344 3.55469 285.198 3.88281 284.906C4.21615 284.615 4.38281 284.18 4.38281 283.602C4.38281 283.148 4.27604 282.807 4.0625 282.578C3.85417 282.344 3.55729 282.227 3.17188 282.227C2.58333 282.227 2.01042 282.477 1.45312 282.977L0.492188 281.57C1.26302 280.799 2.23438 280.414 3.40625 280.414C4.36979 280.414 5.1224 280.659 5.66406 281.148C6.20573 281.633 6.47656 282.299 6.47656 283.148ZM12.1125 284.852C12.9719 284.852 13.6542 285.151 14.1594 285.75C14.6698 286.349 14.925 287.169 14.925 288.211C14.925 289.456 14.6073 290.424 13.9719 291.117C13.3417 291.81 12.4641 292.156 11.3391 292.156C10.3391 292.156 9.52917 291.966 8.90938 291.586V289.602C9.175 289.794 9.51615 289.966 9.93281 290.117C10.3547 290.263 10.7453 290.336 11.1047 290.336C12.2245 290.336 12.7844 289.685 12.7844 288.383C12.7844 287.169 12.2401 286.562 11.1516 286.562C10.7193 286.562 10.2609 286.646 9.77656 286.812L9.08906 286.305L9.44063 280.578H14.3156V282.477H11.2609L11.1047 284.945C11.3964 284.883 11.7323 284.852 12.1125 284.852ZM23.2406 286.289C23.2406 288.357 22.9906 289.852 22.4906 290.773C21.9958 291.695 21.1964 292.156 20.0922 292.156C18.988 292.156 18.1938 291.693 17.7094 290.766C17.2302 289.839 16.9906 288.346 16.9906 286.289C16.9906 284.227 17.2432 282.729 17.7484 281.797C18.2536 280.865 19.0453 280.398 20.1234 280.398C21.2224 280.398 22.0167 280.854 22.5063 281.766C22.9958 282.677 23.2406 284.185 23.2406 286.289ZM19.1156 286.289C19.1156 287.888 19.1833 288.966 19.3188 289.523C19.4594 290.076 19.7224 290.352 20.1078 290.352C20.3682 290.352 20.5688 290.232 20.7094 289.992C20.8552 289.753 20.9594 289.357 21.0219 288.805C21.0844 288.247 21.1156 287.409 21.1156 286.289C21.1156 284.716 21.0427 283.643 20.8969 283.07C20.751 282.497 20.488 282.211 20.1078 282.211C19.7224 282.211 19.4594 282.497 19.3188 283.07C19.1833 283.638 19.1156 284.711 19.1156 286.289Z"
        fill="#D1A954" />
    <path
        d="M36.5594 292H34.4734V284.977H33.3094C33.2052 286.742 33.0359 288.143 32.8016 289.18C32.5724 290.216 32.2625 290.969 31.8719 291.438C31.4865 291.906 30.9734 292.141 30.3328 292.141C29.9422 292.141 29.6219 292.083 29.3719 291.969V290.258C29.5281 290.31 29.687 290.336 29.8484 290.336C30.2859 290.336 30.6271 289.779 30.8719 288.664C31.1167 287.544 31.3042 285.755 31.4344 283.297H36.5594V292ZM42.3281 292.156C41.2396 292.156 40.3802 291.771 39.75 291C39.125 290.224 38.8125 289.128 38.8125 287.711C38.8125 286.273 39.0964 285.151 39.6641 284.344C40.2318 283.536 41.0234 283.133 42.0391 283.133C42.987 283.133 43.7344 283.479 44.2812 284.172C44.8281 284.859 45.1016 285.826 45.1016 287.07V288.18H40.9219C40.9375 288.956 41.0964 289.534 41.3984 289.914C41.7005 290.289 42.1172 290.477 42.6484 290.477C43.3255 290.477 44.0182 290.266 44.7266 289.844V291.555C44.0599 291.956 43.2604 292.156 42.3281 292.156ZM42.0234 284.734C41.7266 284.734 41.4818 284.893 41.2891 285.211C41.0964 285.523 40.9844 286.01 40.9531 286.672H43.0625C43.0521 286.036 42.9557 285.555 42.7734 285.227C42.5911 284.898 42.3411 284.734 42.0234 284.734ZM52.6359 283.297V284.977H50.6984V292H48.6203V284.977H46.6828V283.297H52.6359ZM61.2906 283.297V287.328C61.2906 287.828 61.2281 288.659 61.1031 289.82L63.9313 283.297H66.4781V292H64.5406V287.906C64.5406 287.292 64.6005 286.464 64.7203 285.422L61.8844 292H59.3609V283.297H61.2906ZM71.9266 292.156C70.8901 292.156 70.101 291.779 69.5594 291.023C69.0177 290.268 68.7469 289.159 68.7469 287.695C68.7469 286.164 69.0021 285.021 69.5125 284.266C70.0281 283.51 70.8224 283.133 71.8953 283.133C72.2182 283.133 72.5568 283.18 72.9109 283.273C73.2651 283.367 73.5828 283.503 73.8641 283.68L73.2703 285.297C72.838 285.042 72.4552 284.914 72.1219 284.914C71.6792 284.914 71.3589 285.146 71.1609 285.609C70.9682 286.068 70.8719 286.758 70.8719 287.68C70.8719 288.581 70.9682 289.255 71.1609 289.703C71.3536 290.146 71.6687 290.367 72.1062 290.367C72.6271 290.367 73.1714 290.185 73.7391 289.82V291.648C73.1922 291.987 72.588 292.156 71.9266 292.156ZM81.1484 283.297V284.977H79.2109V292H77.1328V284.977H75.1953V283.297H81.1484ZM89.3156 287.633C89.3156 289.06 89.0135 290.172 88.4094 290.969C87.8052 291.76 86.9771 292.156 85.925 292.156C85.2583 292.156 84.6698 291.974 84.1594 291.609C83.649 291.245 83.2557 290.721 82.9797 290.039C82.7036 289.352 82.5656 288.549 82.5656 287.633C82.5656 286.221 82.8651 285.12 83.4641 284.328C84.063 283.531 84.8938 283.133 85.9563 283.133C86.9823 283.133 87.7974 283.539 88.4016 284.352C89.0109 285.159 89.3156 286.253 89.3156 287.633ZM84.6906 287.633C84.6906 288.539 84.7896 289.224 84.9875 289.688C85.1854 290.151 85.5031 290.383 85.9406 290.383C86.774 290.383 87.1906 289.466 87.1906 287.633C87.1906 286.721 87.0891 286.042 86.8859 285.594C86.688 285.141 86.3729 284.914 85.9406 284.914C85.5031 284.914 85.1854 285.141 84.9875 285.594C84.7896 286.042 84.6906 286.721 84.6906 287.633ZM95.4594 292.156C95.0844 292.156 94.751 292.073 94.4594 291.906C94.1729 291.734 93.9047 291.435 93.6547 291.008H93.5453C93.6286 291.716 93.6703 292.143 93.6703 292.289V295.844H91.5766V283.297H93.1859L93.5453 284.43H93.6391C94.0714 283.565 94.699 283.133 95.5219 283.133C96.3135 283.133 96.9333 283.526 97.3812 284.312C97.8292 285.094 98.0531 286.201 98.0531 287.633C98.0531 289.044 97.8214 290.151 97.3578 290.953C96.8943 291.755 96.2615 292.156 95.4594 292.156ZM94.8187 284.898C94.4125 284.898 94.1182 285.089 93.9359 285.469C93.7589 285.844 93.6651 286.469 93.6547 287.344V287.617C93.6547 288.576 93.7458 289.273 93.9281 289.711C94.1104 290.148 94.4125 290.367 94.8344 290.367C95.5635 290.367 95.9281 289.445 95.9281 287.602C95.9281 286.695 95.837 286.018 95.6547 285.57C95.4776 285.122 95.199 284.898 94.8187 284.898ZM102.244 283.297V287.328C102.244 287.828 102.181 288.659 102.056 289.82L104.884 283.297H107.431V292H105.494V287.906C105.494 287.292 105.554 286.464 105.673 285.422L102.838 292H100.314V283.297H102.244ZM111.934 283.297V287.328C111.934 287.828 111.872 288.659 111.747 289.82L114.575 283.297H117.122V292H115.184V287.906C115.184 287.292 115.244 286.464 115.364 285.422L112.528 292H110.005V283.297H111.934Z"
        fill="white" />
    <path
        d="M68.927 223.641V193.936C68.927 193.369 68.4674 192.909 67.9001 192.909H2.1C1.53276 192.909 1.07311 193.369 1.07311 193.936V223.641C0.435723 223.979 0 224.648 0 225.418V227.526C0 228.296 0.435723 228.965 1.07311 229.303V256.064C1.07311 256.631 1.53289 257.091 2.1 257.091H6.7654H11.3462H11.6569H23.1602H34.9745H46.7887H58.3432H58.6027H63.2346H67.9C68.4672 257.091 68.9269 256.631 68.9269 256.064V229.303C69.5643 228.965 70 228.296 70 227.526V225.418C70.0001 224.648 69.5644 223.979 68.927 223.641ZM66.4858 194.963C66.0744 195.567 65.315 196.276 64.113 197.031C64.0983 197.04 64.0832 197.049 64.0685 197.059C63.9987 197.102 63.9271 197.146 63.8545 197.19C63.8213 197.209 63.788 197.229 63.7544 197.249C63.6992 197.282 63.6424 197.315 63.5854 197.348C63.5395 197.374 63.4937 197.401 63.4466 197.428C63.4015 197.453 63.3549 197.479 63.3087 197.504C63.2513 197.536 63.1945 197.568 63.1356 197.6C63.1254 197.606 63.1146 197.611 63.1043 197.617C62.9556 197.697 62.8015 197.778 62.6434 197.858C62.6009 197.88 62.5592 197.902 62.5159 197.923C62.4553 197.954 62.393 197.984 62.3312 198.014C62.2743 198.042 62.2175 198.07 62.1594 198.098C62.1039 198.125 62.0476 198.152 61.9911 198.179C61.919 198.213 61.8459 198.247 61.7718 198.281C61.726 198.302 61.6801 198.323 61.6336 198.345C61.5326 198.391 61.4298 198.437 61.3253 198.483C61.3026 198.493 61.2803 198.503 61.2574 198.513C60.8375 198.697 60.3908 198.882 59.9153 199.066C59.9152 199.066 59.9152 199.066 59.9151 199.066C59.3004 199.305 58.644 199.541 57.9421 199.773C56.0422 200.4 53.9944 200.944 51.8391 201.4C51.8049 201.403 51.7707 201.408 51.7364 201.416C49.6913 201.843 47.5388 202.195 45.3389 202.461C45.3111 202.465 45.2839 202.47 45.2566 202.476C41.9447 202.871 38.4897 203.077 35.0001 203.077C31.5105 203.077 28.0553 202.871 24.7434 202.476C24.7162 202.471 24.6891 202.465 24.6614 202.462C22.4605 202.195 20.3081 201.844 18.2639 201.416C18.2296 201.409 18.1954 201.403 18.1612 201.4C16.0058 200.944 13.9581 200.4 12.0582 199.773C11.3563 199.541 10.6998 199.305 10.0852 199.067C10.0851 199.067 10.0849 199.066 10.0849 199.066C9.60957 198.882 9.16291 198.698 8.74318 198.514C8.72008 198.503 8.69752 198.493 8.67455 198.483C8.57023 198.437 8.46769 198.391 8.36679 198.345C8.32031 198.324 8.27437 198.303 8.22857 198.282C8.15447 198.247 8.08146 198.213 8.00927 198.179C7.95281 198.152 7.89648 198.126 7.84097 198.099C7.78287 198.071 7.72613 198.043 7.66925 198.015C7.60732 197.984 7.54511 197.954 7.48455 197.924C7.44134 197.902 7.39951 197.88 7.35699 197.859C7.20058 197.779 7.048 197.699 6.90062 197.62C6.88872 197.613 6.87628 197.607 6.86453 197.6C6.80587 197.569 6.74941 197.537 6.69226 197.505C6.64591 197.479 6.59902 197.454 6.55376 197.428C6.50673 197.401 6.46093 197.375 6.41499 197.348C6.35798 197.315 6.30138 197.282 6.24601 197.25C6.21224 197.23 6.17902 197.21 6.14593 197.19C6.0732 197.146 6.00169 197.102 5.93196 197.059C5.91706 197.05 5.90216 197.041 5.88739 197.031C4.68522 196.276 3.92589 195.567 3.5145 194.963H66.4858V194.963ZM3.1269 197.569C3.44327 197.843 3.80626 198.122 4.21765 198.404C5.3088 199.159 6.76308 199.944 8.69369 200.729C8.69219 207.18 6.81066 214.359 5.20052 219.321C5.02552 219.861 5.32083 220.44 5.86046 220.615C6.39913 220.79 6.97896 220.494 7.15423 219.955C8.74783 215.044 10.5982 208.007 10.738 201.494C10.9588 201.57 11.1833 201.647 11.4141 201.723C13.0885 202.276 14.872 202.766 16.7399 203.191C14.5695 209.925 11.0308 215.477 8.37855 219.014C8.03839 219.468 8.13041 220.112 8.58418 220.452C8.76888 220.59 8.98504 220.657 9.19941 220.657C9.51168 220.657 9.82012 220.515 10.0219 220.246C12.7962 216.546 16.5094 210.714 18.761 203.617C20.1754 203.894 21.6307 204.135 23.117 204.338C20.9417 209.667 16.5899 215.157 13.2013 218.937C12.8227 219.359 12.8582 220.009 13.2806 220.387C13.7031 220.766 14.3522 220.73 14.7308 220.308C21.049 213.26 23.9186 207.977 25.2219 204.597C28.3948 204.948 31.6837 205.131 34.9999 205.131C38.3165 205.131 41.6055 204.948 44.7785 204.597C46.9989 210.373 51.6693 216.293 55.278 220.318C55.6564 220.74 56.3057 220.776 56.7281 220.397C57.1505 220.019 57.1859 219.369 56.8072 218.947C53.4154 215.164 49.0594 209.67 46.8829 204.338C48.3693 204.135 49.8245 203.895 51.2389 203.618C53.4932 210.722 57.2125 216.56 59.9916 220.264C60.1934 220.533 60.5016 220.675 60.8138 220.675C61.0284 220.675 61.2447 220.608 61.4294 220.469C61.883 220.129 61.9749 219.485 61.6344 219.032C58.9776 215.491 55.433 209.933 53.26 203.19C55.1277 202.766 56.9113 202.276 58.5857 201.723C58.8165 201.647 59.041 201.57 59.2618 201.494C59.4017 208.003 61.2501 215.036 62.8421 219.944C63.0171 220.483 63.5964 220.778 64.1358 220.604C64.6752 220.429 64.9708 219.849 64.7958 219.31C63.1873 214.351 61.3078 207.177 61.3063 200.729C63.2369 199.944 64.6912 199.159 65.7824 198.404C66.1937 198.122 66.5569 197.843 66.8731 197.569V223.408H61.1766C60.0682 223.408 59.1664 224.31 59.1664 225.418V227.526C59.1664 228.072 59.3861 228.567 59.7409 228.93C59.1191 230.82 58.3778 233.192 57.6673 235.762H12.333C11.6223 233.192 10.8809 230.82 10.2593 228.93C10.614 228.567 10.8338 228.072 10.8338 227.526V225.418C10.8338 224.31 9.93195 223.408 8.82357 223.408H3.1269V197.569ZM2.05393 227.482V225.462H8.77982V227.482H4.87663H2.1H2.05393ZM7.33785 254.703C7.22423 254.909 7.00494 255.037 6.7654 255.037H3.1269V229.536H4.11073C7.85109 242.199 9.05832 251.579 7.33785 254.703ZM12.3731 255.037V249.369C12.3731 248.149 13.3661 247.156 14.5866 247.156H19.92C21.1405 247.156 22.1333 248.149 22.1333 249.369V255.037H12.3731ZM24.1872 255.037V249.369C24.1872 248.149 25.1802 247.156 26.4007 247.156H31.734C32.9546 247.156 33.9475 248.149 33.9475 249.369V255.037H24.1872ZM36.0015 255.037V249.369C36.0015 248.149 36.9945 247.156 38.2149 247.156H43.5482C44.7688 247.156 45.7616 248.149 45.7616 249.369V255.037H36.0015ZM57.5758 255.037H47.8156V249.369C47.8156 248.149 48.8086 247.156 50.029 247.156H55.3623C56.5828 247.156 57.5758 248.149 57.5758 249.369V255.037ZM59.6297 255.037V249.369C59.6297 247.016 57.7154 245.102 55.3625 245.102H50.0292C48.7336 245.102 47.5721 245.683 46.7887 246.597C46.0054 245.683 44.8437 245.102 43.5482 245.102H38.2149C36.9195 245.102 35.7578 245.683 34.9745 246.597C34.1912 245.683 33.0295 245.102 31.734 245.102H26.4007C25.1053 245.102 23.9436 245.683 23.1602 246.597C22.3769 245.683 21.2152 245.102 19.9198 245.102H14.5866C12.2335 245.102 10.3191 247.016 10.3191 249.369V255.037H9.44182C11.5232 249.777 8.54904 237.425 6.25107 229.536H8.29652C9.26682 232.483 10.5367 236.632 11.5096 240.846C11.6371 241.398 12.1885 241.743 12.7413 241.615C13.2939 241.488 13.6384 240.936 13.5108 240.384C13.3118 239.522 13.1007 238.663 12.8823 237.816H57.1181C56.8975 238.671 56.6844 239.539 56.4837 240.409C56.3563 240.962 56.7009 241.513 57.2537 241.641C57.3313 241.658 57.4089 241.667 57.4854 241.667C57.9529 241.667 58.3756 241.346 58.4853 240.871C59.4591 236.648 60.7315 232.489 61.7039 229.536H63.7493C61.4514 237.425 58.4772 249.777 60.5586 255.037H59.6297ZM66.8732 255.037H63.2349C62.9953 255.037 62.776 254.909 62.6624 254.703C60.942 251.579 62.1492 242.199 65.8894 229.536H66.8732V255.037ZM67.9462 227.482H67.9001H65.1235H61.2203V225.462H67.9462V227.482Z"
        fill="white" />
</svg>