<svg width="686" height="273" viewBox="0 0 686 273" fill="none" xmlns="http://www.w3.org/2000/svg">
<g clip-path="url(#clip0_25_242)">
<path d="M61.7714 63.7649H74.4643V67.9057H68.4262V96.9999H61.7714V63.7649Z" fill="white" fill-opacity="0.5"/>
<path d="M81.9926 84.5232L83.1331 67.9057H83.5151L84.6556 84.5232H81.9926ZM74.6229 96.9999H81.1385L81.7552 88.1736H84.893L85.5123 96.9999H92.0253L88.5546 63.7649H78.0936L74.6229 96.9999Z" fill="white" fill-opacity="0.5"/>
<path d="M101.554 85.3676V91.6333C101.554 92.4778 102.208 92.7229 102.59 92.7229C103.218 92.7229 103.654 92.2054 103.654 91.6333V83.8966C103.654 82.8614 103.463 81.7173 100.981 81.7173H98.2793V78.0669H101.09C102.972 78.0669 103.654 77.631 103.654 75.5878V68.9953C103.654 68.4233 103.218 67.9057 102.59 67.9057C102.208 67.9057 101.554 68.1236 101.554 68.9953V74.4164H94.896V69.7036C94.896 67.3881 95.1688 63.7649 99.8346 63.7649H105.346C110.012 63.7649 110.312 67.3881 110.312 69.7036V75.0158C110.312 78.6389 107.774 79.6196 105.783 79.5379V79.8648C110.257 79.7558 110.312 83.1883 110.312 84.3597V91.0612C110.312 93.404 110.012 96.9999 105.346 96.9999H99.8346C95.1688 96.9999 94.896 93.404 94.896 91.0612V85.3676H101.554Z" fill="white" fill-opacity="0.5"/>
<path d="M114.678 63.7649H130.094V96.9999H123.437V67.9057H121.336V96.9999H114.678V63.7649Z" fill="white" fill-opacity="0.5"/>
<path d="M141.118 82.0442V67.9057H141.991C142.7 67.9057 143.219 68.505 143.219 69.5674V80.3824C143.219 81.4448 142.7 82.0442 141.991 82.0442H141.118ZM134.46 96.9999H141.118V85.6946H144.938C149.576 85.6946 149.876 82.0986 149.876 79.7558V69.7036C149.876 67.3881 149.576 63.7649 144.938 63.7649H134.46V96.9999Z" fill="white" fill-opacity="0.5"/>
<path d="M163.001 91.6333C163.001 92.2054 162.564 92.7229 161.937 92.7229C161.555 92.7229 160.9 92.4778 160.9 91.6333V68.9953C160.9 68.1236 161.555 67.9057 161.937 67.9057C162.564 67.9057 163.001 68.4233 163.001 68.9953V91.6333ZM154.242 91.0612C154.242 93.404 154.543 96.9999 159.181 96.9999H164.72C169.358 96.9999 169.658 93.404 169.658 91.0612V69.7036C169.658 67.3881 169.358 63.7649 164.72 63.7649H159.181C154.543 63.7649 154.242 67.3881 154.242 69.7036V91.0612Z" fill="white" fill-opacity="0.5"/>
<path d="M191.323 63.7649H200V96.9999H193.342V76.1599H193.097L189.659 96.9999H184.338L180.928 76.1599H180.682V96.9999H174.025V63.7649H182.674L187.012 87.1384L191.323 63.7649Z" fill="white" fill-opacity="0.5"/>
<path d="M53.1468 18.3258C51.1086 9.41771 46.0009 2.1714 45.2969 1C44.1837 2.66175 40.1101 9.06357 38.0391 16.1464C35.7772 24.0738 35.4443 31.1022 36.2247 37.9944C36.9996 44.9138 39.9272 52.0239 39.9272 52.0239C41.4825 55.7288 43.8126 59.7333 45.3297 61.6947C47.5534 58.8071 52.6639 50.1987 54.2573 38.9751C55.1441 32.7095 55.1822 27.2339 53.1468 18.3258ZM45.2969 59.4609C44.2956 57.5812 42.7403 54.0126 42.593 48.4552C42.5548 43.1158 44.7021 38.512 45.3297 37.5585C45.889 38.512 47.7389 42.5165 47.9599 47.9921C48.11 53.3315 46.331 57.554 45.2969 59.4609ZM52.5547 33.445C52.4783 36.8502 52.0718 40.4461 51.5534 42.5982C51.7389 38.8934 51.2942 33.6902 50.4429 29.6039C49.5916 25.5449 47.1823 18.7344 45.2587 15.6016C43.4825 18.5982 41.2942 24.4824 40.1483 29.5767C38.9968 34.6709 38.9641 40.8548 38.9641 42.7072C38.6585 41.1544 37.8945 35.5699 38.1101 29.9853C38.2901 25.3814 39.3706 20.6141 39.9627 18.4348C42.2219 11.1612 44.7785 6.50284 45.2587 5.7673C45.7389 6.50284 48.9586 12.2509 50.6284 18.2713C52.2901 24.2917 52.6257 30.067 52.5547 33.445Z" fill="white" fill-opacity="0.5"/>
<path d="M48.7527 63.765H33.2576V74.1441C33.2713 74.1441 33.2822 74.1169 33.2958 74.1169C36.9465 70.4665 42.8674 70.4665 46.5208 74.1169C50.1715 77.7401 50.1715 83.6515 46.5208 87.3019C46.5045 87.3292 46.4881 87.3292 46.4717 87.3564C46.4526 87.3564 46.4335 87.3837 46.4171 87.4109C42.7746 91.0068 38.0161 92.8048 33.2576 92.8048C28.4773 92.8048 23.697 91.0068 20.0517 87.3564C13.6234 80.9546 12.8621 71.0113 17.7625 63.765C18.4228 62.7843 19.184 61.8581 20.0517 60.9863C23.697 57.3359 28.4773 55.538 33.2576 55.538V30.5845C14.8894 30.5845 0 45.4312 0 63.765C0 82.0987 14.8894 96.9728 33.2576 96.9728C42.8346 96.9728 51.4621 92.9137 57.5303 86.4574V63.765H48.7527Z" fill="white" fill-opacity="0.5"/>
<path d="M617.771 63.7649H630.464V67.9057H624.426V96.9999H617.771V63.7649Z" fill="white" fill-opacity="0.5"/>
<path d="M637.993 84.5232L639.133 67.9057H639.515L640.656 84.5232H637.993ZM630.623 96.9999H637.139L637.755 88.1736H640.893L641.512 96.9999H648.025L644.555 63.7649H634.094L630.623 96.9999Z" fill="white" fill-opacity="0.5"/>
<path d="M657.554 85.3676V91.6333C657.554 92.4778 658.208 92.7229 658.59 92.7229C659.218 92.7229 659.654 92.2054 659.654 91.6333V83.8966C659.654 82.8614 659.463 81.7173 656.981 81.7173H654.279V78.0669H657.09C658.972 78.0669 659.654 77.631 659.654 75.5878V68.9953C659.654 68.4233 659.218 67.9057 658.59 67.9057C658.208 67.9057 657.554 68.1236 657.554 68.9953V74.4164H650.896V69.7036C650.896 67.3881 651.169 63.7649 655.835 63.7649H661.346C666.012 63.7649 666.312 67.3881 666.312 69.7036V75.0158C666.312 78.6389 663.774 79.6196 661.783 79.5379V79.8648C666.257 79.7558 666.312 83.1883 666.312 84.3597V91.0612C666.312 93.404 666.012 96.9999 661.346 96.9999H655.835C651.169 96.9999 650.896 93.404 650.896 91.0612V85.3676H657.554Z" fill="white" fill-opacity="0.5"/>
<path d="M670.678 63.7649H686.094V96.9999H679.437V67.9057H677.336V96.9999H670.678V63.7649Z" fill="white" fill-opacity="0.5"/>
<path d="M609.147 18.3258C607.109 9.41771 602.001 2.1714 601.297 1C600.184 2.66175 596.11 9.06357 594.039 16.1464C591.777 24.0738 591.444 31.1022 592.225 37.9944C593 44.9138 595.927 52.0239 595.927 52.0239C597.482 55.7288 599.813 59.7333 601.33 61.6947C603.553 58.8071 608.664 50.1987 610.257 38.9751C611.144 32.7095 611.182 27.2339 609.147 18.3258ZM601.297 59.4609C600.296 57.5812 598.74 54.0126 598.593 48.4552C598.555 43.1158 600.702 38.512 601.33 37.5585C601.889 38.512 603.739 42.5165 603.96 47.9921C604.11 53.3315 602.331 57.554 601.297 59.4609ZM608.555 33.445C608.478 36.8502 608.072 40.4461 607.553 42.5982C607.739 38.8934 607.294 33.6902 606.443 29.6039C605.592 25.5449 603.182 18.7344 601.259 15.6016C599.482 18.5982 597.294 24.4824 596.148 29.5767C594.997 34.6709 594.964 40.8548 594.964 42.7072C594.658 41.1544 593.895 35.5699 594.11 29.9853C594.29 25.3814 595.371 20.6141 595.963 18.4348C598.222 11.1612 600.779 6.50284 601.259 5.7673C601.739 6.50284 604.959 12.2509 606.628 18.2713C608.29 24.2917 608.626 30.067 608.555 33.445Z" fill="white" fill-opacity="0.5"/>
<path d="M604.753 63.765H589.258V74.1441C589.271 74.1441 589.282 74.1169 589.296 74.1169C592.947 70.4665 598.867 70.4665 602.521 74.1169C606.172 77.7401 606.172 83.6515 602.521 87.3019C602.504 87.3292 602.488 87.3292 602.472 87.3564C602.453 87.3564 602.434 87.3837 602.417 87.4109C598.775 91.0068 594.016 92.8048 589.258 92.8048C584.477 92.8048 579.697 91.0068 576.052 87.3564C569.623 80.9546 568.862 71.0113 573.762 63.765C574.423 62.7843 575.184 61.8581 576.052 60.9863C579.697 57.3359 584.477 55.538 589.258 55.538V30.5845C570.889 30.5845 556 45.4312 556 63.765C556 82.0987 570.889 96.9728 589.258 96.9728C598.835 96.9728 607.462 92.9137 613.53 86.4574V63.765H604.753Z" fill="white" fill-opacity="0.5"/>
<path d="M339.771 63.7649H352.464V67.9057H346.426V96.9999H339.771V63.7649Z" fill="white" fill-opacity="0.5"/>
<path d="M359.993 84.5232L361.133 67.9057H361.515L362.656 84.5232H359.993ZM352.623 96.9999H359.139L359.755 88.1736H362.893L363.512 96.9999H370.025L366.555 63.7649H356.094L352.623 96.9999Z" fill="white" fill-opacity="0.5"/>
<path d="M379.554 85.3676V91.6333C379.554 92.4778 380.208 92.7229 380.59 92.7229C381.218 92.7229 381.654 92.2054 381.654 91.6333V83.8966C381.654 82.8614 381.463 81.7173 378.981 81.7173H376.279V78.0669H379.09C380.972 78.0669 381.654 77.631 381.654 75.5878V68.9953C381.654 68.4233 381.218 67.9057 380.59 67.9057C380.208 67.9057 379.554 68.1236 379.554 68.9953V74.4164H372.896V69.7036C372.896 67.3881 373.169 63.7649 377.835 63.7649H383.346C388.012 63.7649 388.312 67.3881 388.312 69.7036V75.0158C388.312 78.6389 385.774 79.6196 383.783 79.5379V79.8648C388.257 79.7558 388.312 83.1883 388.312 84.3597V91.0612C388.312 93.404 388.012 96.9999 383.346 96.9999H377.835C373.169 96.9999 372.896 93.404 372.896 91.0612V85.3676H379.554Z" fill="white" fill-opacity="0.5"/>
<path d="M392.678 63.7649H408.094V96.9999H401.437V67.9057H399.336V96.9999H392.678V63.7649Z" fill="white" fill-opacity="0.5"/>
<path d="M419.118 82.0442V67.9057H419.991C420.7 67.9057 421.219 68.505 421.219 69.5674V80.3824C421.219 81.4448 420.7 82.0442 419.991 82.0442H419.118ZM412.46 96.9999H419.118V85.6946H422.938C427.576 85.6946 427.876 82.0986 427.876 79.7558V69.7036C427.876 67.3881 427.576 63.7649 422.938 63.7649H412.46V96.9999Z" fill="white" fill-opacity="0.5"/>
<path d="M441.001 91.6333C441.001 92.2054 440.564 92.7229 439.937 92.7229C439.555 92.7229 438.9 92.4778 438.9 91.6333V68.9953C438.9 68.1236 439.555 67.9057 439.937 67.9057C440.564 67.9057 441.001 68.4233 441.001 68.9953V91.6333ZM432.242 91.0612C432.242 93.404 432.543 96.9999 437.181 96.9999H442.72C447.358 96.9999 447.658 93.404 447.658 91.0612V69.7036C447.658 67.3881 447.358 63.7649 442.72 63.7649H437.181C432.543 63.7649 432.242 67.3881 432.242 69.7036V91.0612Z" fill="white" fill-opacity="0.5"/>
<path d="M469.323 63.7649H478V96.9999H471.342V76.1599H471.097L467.659 96.9999H462.338L458.928 76.1599H458.682V96.9999H452.025V63.7649H460.674L465.012 87.1384L469.323 63.7649Z" fill="white" fill-opacity="0.5"/>
<path d="M331.147 18.3258C329.109 9.41771 324.001 2.1714 323.297 1C322.184 2.66175 318.11 9.06357 316.039 16.1464C313.777 24.0738 313.444 31.1022 314.225 37.9944C315 44.9138 317.927 52.0239 317.927 52.0239C319.482 55.7288 321.813 59.7333 323.33 61.6947C325.553 58.8071 330.664 50.1987 332.257 38.9751C333.144 32.7095 333.182 27.2339 331.147 18.3258ZM323.297 59.4609C322.296 57.5812 320.74 54.0126 320.593 48.4552C320.555 43.1158 322.702 38.512 323.33 37.5585C323.889 38.512 325.739 42.5165 325.96 47.9921C326.11 53.3315 324.331 57.554 323.297 59.4609ZM330.555 33.445C330.478 36.8502 330.072 40.4461 329.553 42.5982C329.739 38.8934 329.294 33.6902 328.443 29.6039C327.592 25.5449 325.182 18.7344 323.259 15.6016C321.482 18.5982 319.294 24.4824 318.148 29.5767C316.997 34.6709 316.964 40.8548 316.964 42.7072C316.658 41.1544 315.894 35.5699 316.11 29.9853C316.29 25.3814 317.371 20.6141 317.963 18.4348C320.222 11.1612 322.778 6.50284 323.259 5.7673C323.739 6.50284 326.959 12.2509 328.628 18.2713C330.29 24.2917 330.626 30.067 330.555 33.445Z" fill="white" fill-opacity="0.5"/>
<path d="M326.753 63.765H311.258V74.1441C311.271 74.1441 311.282 74.1169 311.296 74.1169C314.947 70.4665 320.867 70.4665 324.521 74.1169C328.172 77.7401 328.172 83.6515 324.521 87.3019C324.504 87.3292 324.488 87.3292 324.472 87.3564C324.453 87.3564 324.434 87.3837 324.417 87.4109C320.775 91.0068 316.016 92.8048 311.258 92.8048C306.477 92.8048 301.697 91.0068 298.052 87.3564C291.623 80.9546 290.862 71.0113 295.762 63.765C296.423 62.7843 297.184 61.8581 298.052 60.9863C301.697 57.3359 306.477 55.538 311.258 55.538V30.5845C292.889 30.5845 278 45.4312 278 63.765C278 82.0987 292.889 96.9728 311.258 96.9728C320.835 96.9728 329.462 92.9137 335.53 86.4574V63.765H326.753Z" fill="white" fill-opacity="0.5"/>
<path d="M61.7714 239.765H74.4643V243.906H68.4262V273H61.7714V239.765Z" fill="white" fill-opacity="0.5"/>
<path d="M81.9926 260.523L83.1331 243.906H83.5151L84.6556 260.523H81.9926ZM74.6229 273H81.1385L81.7552 264.174H84.893L85.5123 273H92.0253L88.5546 239.765H78.0936L74.6229 273Z" fill="white" fill-opacity="0.5"/>
<path d="M101.554 261.368V267.633C101.554 268.478 102.208 268.723 102.59 268.723C103.218 268.723 103.654 268.205 103.654 267.633V259.897C103.654 258.861 103.463 257.717 100.981 257.717H98.2793V254.067H101.09C102.972 254.067 103.654 253.631 103.654 251.588V244.995C103.654 244.423 103.218 243.906 102.59 243.906C102.208 243.906 101.554 244.124 101.554 244.995V250.416H94.896V245.704C94.896 243.388 95.1688 239.765 99.8346 239.765H105.346C110.012 239.765 110.312 243.388 110.312 245.704V251.016C110.312 254.639 107.774 255.62 105.783 255.538V255.865C110.257 255.756 110.312 259.188 110.312 260.36V267.061C110.312 269.404 110.012 273 105.346 273H99.8346C95.1688 273 94.896 269.404 94.896 267.061V261.368H101.554Z" fill="white" fill-opacity="0.5"/>
<path d="M114.678 239.765H130.094V273H123.437V243.906H121.336V273H114.678V239.765Z" fill="white" fill-opacity="0.5"/>
<path d="M141.118 258.044V243.906H141.991C142.7 243.906 143.219 244.505 143.219 245.567V256.382C143.219 257.445 142.7 258.044 141.991 258.044H141.118ZM134.46 273H141.118V261.695H144.938C149.576 261.695 149.876 258.099 149.876 255.756V245.704C149.876 243.388 149.576 239.765 144.938 239.765H134.46V273Z" fill="white" fill-opacity="0.5"/>
<path d="M163.001 267.633C163.001 268.205 162.564 268.723 161.937 268.723C161.555 268.723 160.9 268.478 160.9 267.633V244.995C160.9 244.124 161.555 243.906 161.937 243.906C162.564 243.906 163.001 244.423 163.001 244.995V267.633ZM154.242 267.061C154.242 269.404 154.543 273 159.181 273H164.72C169.358 273 169.658 269.404 169.658 267.061V245.704C169.658 243.388 169.358 239.765 164.72 239.765H159.181C154.543 239.765 154.242 243.388 154.242 245.704V267.061Z" fill="white" fill-opacity="0.5"/>
<path d="M191.323 239.765H200V273H193.342V252.16H193.097L189.659 273H184.338L180.928 252.16H180.682V273H174.025V239.765H182.674L187.012 263.138L191.323 239.765Z" fill="white" fill-opacity="0.5"/>
<path d="M53.1468 194.326C51.1086 185.418 46.0009 178.171 45.2969 177C44.1837 178.662 40.1101 185.064 38.0391 192.146C35.7772 200.074 35.4443 207.102 36.2247 213.994C36.9996 220.914 39.9272 228.024 39.9272 228.024C41.4825 231.729 43.8126 235.733 45.3297 237.695C47.5534 234.807 52.6639 226.199 54.2573 214.975C55.1441 208.709 55.1822 203.234 53.1468 194.326ZM45.2969 235.461C44.2956 233.581 42.7403 230.013 42.593 224.455C42.5548 219.116 44.7021 214.512 45.3297 213.559C45.889 214.512 47.7389 218.517 47.9599 223.992C48.11 229.332 46.331 233.554 45.2969 235.461ZM52.5547 209.445C52.4783 212.85 52.0718 216.446 51.5534 218.598C51.7389 214.893 51.2942 209.69 50.4429 205.604C49.5916 201.545 47.1823 194.734 45.2587 191.602C43.4825 194.598 41.2942 200.482 40.1483 205.577C38.9968 210.671 38.9641 216.855 38.9641 218.707C38.6585 217.154 37.8945 211.57 38.1101 205.985C38.2901 201.381 39.3706 196.614 39.9627 194.435C42.2219 187.161 44.7785 182.503 45.2587 181.767C45.7389 182.503 48.9586 188.251 50.6284 194.271C52.2901 200.292 52.6257 206.067 52.5547 209.445Z" fill="white" fill-opacity="0.5"/>
<path d="M48.7527 239.765H33.2576V250.144C33.2713 250.144 33.2822 250.117 33.2958 250.117C36.9465 246.466 42.8674 246.466 46.5208 250.117C50.1715 253.74 50.1715 259.652 46.5208 263.302C46.5045 263.329 46.4881 263.329 46.4717 263.356C46.4526 263.356 46.4335 263.384 46.4171 263.411C42.7746 267.007 38.0161 268.805 33.2576 268.805C28.4773 268.805 23.697 267.007 20.0517 263.356C13.6234 256.955 12.8621 247.011 17.7625 239.765C18.4228 238.784 19.184 237.858 20.0517 236.986C23.697 233.336 28.4773 231.538 33.2576 231.538V206.584C14.8894 206.584 0 221.431 0 239.765C0 258.099 14.8894 272.973 33.2576 272.973C42.8346 272.973 51.4621 268.914 57.5303 262.457V239.765H48.7527Z" fill="white" fill-opacity="0.5"/>
<path d="M617.771 239.765H630.464V243.906H624.426V273H617.771V239.765Z" fill="white" fill-opacity="0.5"/>
<path d="M637.993 260.523L639.133 243.906H639.515L640.656 260.523H637.993ZM630.623 273H637.139L637.755 264.174H640.893L641.512 273H648.025L644.555 239.765H634.094L630.623 273Z" fill="white" fill-opacity="0.5"/>
<path d="M657.554 261.368V267.633C657.554 268.478 658.208 268.723 658.59 268.723C659.218 268.723 659.654 268.205 659.654 267.633V259.897C659.654 258.861 659.463 257.717 656.981 257.717H654.279V254.067H657.09C658.972 254.067 659.654 253.631 659.654 251.588V244.995C659.654 244.423 659.218 243.906 658.59 243.906C658.208 243.906 657.554 244.124 657.554 244.995V250.416H650.896V245.704C650.896 243.388 651.169 239.765 655.835 239.765H661.346C666.012 239.765 666.312 243.388 666.312 245.704V251.016C666.312 254.639 663.774 255.62 661.783 255.538V255.865C666.257 255.756 666.312 259.188 666.312 260.36V267.061C666.312 269.404 666.012 273 661.346 273H655.835C651.169 273 650.896 269.404 650.896 267.061V261.368H657.554Z" fill="white" fill-opacity="0.5"/>
<path d="M670.678 239.765H686.094V273H679.437V243.906H677.336V273H670.678V239.765Z" fill="white" fill-opacity="0.5"/>
<path d="M609.147 194.326C607.109 185.418 602.001 178.171 601.297 177C600.184 178.662 596.11 185.064 594.039 192.146C591.777 200.074 591.444 207.102 592.225 213.994C593 220.914 595.927 228.024 595.927 228.024C597.482 231.729 599.813 235.733 601.33 237.695C603.553 234.807 608.664 226.199 610.257 214.975C611.144 208.709 611.182 203.234 609.147 194.326ZM601.297 235.461C600.296 233.581 598.74 230.013 598.593 224.455C598.555 219.116 600.702 214.512 601.33 213.559C601.889 214.512 603.739 218.517 603.96 223.992C604.11 229.332 602.331 233.554 601.297 235.461ZM608.555 209.445C608.478 212.85 608.072 216.446 607.553 218.598C607.739 214.893 607.294 209.69 606.443 205.604C605.592 201.545 603.182 194.734 601.259 191.602C599.482 194.598 597.294 200.482 596.148 205.577C594.997 210.671 594.964 216.855 594.964 218.707C594.658 217.154 593.895 211.57 594.11 205.985C594.29 201.381 595.371 196.614 595.963 194.435C598.222 187.161 600.779 182.503 601.259 181.767C601.739 182.503 604.959 188.251 606.628 194.271C608.29 200.292 608.626 206.067 608.555 209.445Z" fill="white" fill-opacity="0.5"/>
<path d="M604.753 239.765H589.258V250.144C589.271 250.144 589.282 250.117 589.296 250.117C592.947 246.466 598.867 246.466 602.521 250.117C606.172 253.74 606.172 259.652 602.521 263.302C602.504 263.329 602.488 263.329 602.472 263.356C602.453 263.356 602.434 263.384 602.417 263.411C598.775 267.007 594.016 268.805 589.258 268.805C584.477 268.805 579.697 267.007 576.052 263.356C569.623 256.955 568.862 247.011 573.762 239.765C574.423 238.784 575.184 237.858 576.052 236.986C579.697 233.336 584.477 231.538 589.258 231.538V206.584C570.889 206.584 556 221.431 556 239.765C556 258.099 570.889 272.973 589.258 272.973C598.835 272.973 607.462 268.914 613.53 262.457V239.765H604.753Z" fill="white" fill-opacity="0.5"/>
<path d="M339.771 239.765H352.464V243.906H346.426V273H339.771V239.765Z" fill="white" fill-opacity="0.5"/>
<path d="M359.993 260.523L361.133 243.906H361.515L362.656 260.523H359.993ZM352.623 273H359.139L359.755 264.174H362.893L363.512 273H370.025L366.555 239.765H356.094L352.623 273Z" fill="white" fill-opacity="0.5"/>
<path d="M379.554 261.368V267.633C379.554 268.478 380.208 268.723 380.59 268.723C381.218 268.723 381.654 268.205 381.654 267.633V259.897C381.654 258.861 381.463 257.717 378.981 257.717H376.279V254.067H379.09C380.972 254.067 381.654 253.631 381.654 251.588V244.995C381.654 244.423 381.218 243.906 380.59 243.906C380.208 243.906 379.554 244.124 379.554 244.995V250.416H372.896V245.704C372.896 243.388 373.169 239.765 377.835 239.765H383.346C388.012 239.765 388.312 243.388 388.312 245.704V251.016C388.312 254.639 385.774 255.62 383.783 255.538V255.865C388.257 255.756 388.312 259.188 388.312 260.36V267.061C388.312 269.404 388.012 273 383.346 273H377.835C373.169 273 372.896 269.404 372.896 267.061V261.368H379.554Z" fill="white" fill-opacity="0.5"/>
<path d="M392.678 239.765H408.094V273H401.437V243.906H399.336V273H392.678V239.765Z" fill="white" fill-opacity="0.5"/>
<path d="M419.118 258.044V243.906H419.991C420.7 243.906 421.219 244.505 421.219 245.567V256.382C421.219 257.445 420.7 258.044 419.991 258.044H419.118ZM412.46 273H419.118V261.695H422.938C427.576 261.695 427.876 258.099 427.876 255.756V245.704C427.876 243.388 427.576 239.765 422.938 239.765H412.46V273Z" fill="white" fill-opacity="0.5"/>
<path d="M441.001 267.633C441.001 268.205 440.564 268.723 439.937 268.723C439.555 268.723 438.9 268.478 438.9 267.633V244.995C438.9 244.124 439.555 243.906 439.937 243.906C440.564 243.906 441.001 244.423 441.001 244.995V267.633ZM432.242 267.061C432.242 269.404 432.543 273 437.181 273H442.72C447.358 273 447.658 269.404 447.658 267.061V245.704C447.658 243.388 447.358 239.765 442.72 239.765H437.181C432.543 239.765 432.242 243.388 432.242 245.704V267.061Z" fill="white" fill-opacity="0.5"/>
<path d="M469.323 239.765H478V273H471.342V252.16H471.097L467.659 273H462.338L458.928 252.16H458.682V273H452.025V239.765H460.674L465.012 263.138L469.323 239.765Z" fill="white" fill-opacity="0.5"/>
<path d="M331.147 194.326C329.109 185.418 324.001 178.171 323.297 177C322.184 178.662 318.11 185.064 316.039 192.146C313.777 200.074 313.444 207.102 314.225 213.994C315 220.914 317.927 228.024 317.927 228.024C319.482 231.729 321.813 235.733 323.33 237.695C325.553 234.807 330.664 226.199 332.257 214.975C333.144 208.709 333.182 203.234 331.147 194.326ZM323.297 235.461C322.296 233.581 320.74 230.013 320.593 224.455C320.555 219.116 322.702 214.512 323.33 213.559C323.889 214.512 325.739 218.517 325.96 223.992C326.11 229.332 324.331 233.554 323.297 235.461ZM330.555 209.445C330.478 212.85 330.072 216.446 329.553 218.598C329.739 214.893 329.294 209.69 328.443 205.604C327.592 201.545 325.182 194.734 323.259 191.602C321.482 194.598 319.294 200.482 318.148 205.577C316.997 210.671 316.964 216.855 316.964 218.707C316.658 217.154 315.894 211.57 316.11 205.985C316.29 201.381 317.371 196.614 317.963 194.435C320.222 187.161 322.778 182.503 323.259 181.767C323.739 182.503 326.959 188.251 328.628 194.271C330.29 200.292 330.626 206.067 330.555 209.445Z" fill="white" fill-opacity="0.5"/>
<path d="M326.753 239.765H311.258V250.144C311.271 250.144 311.282 250.117 311.296 250.117C314.947 246.466 320.867 246.466 324.521 250.117C328.172 253.74 328.172 259.652 324.521 263.302C324.504 263.329 324.488 263.329 324.472 263.356C324.453 263.356 324.434 263.384 324.417 263.411C320.775 267.007 316.016 268.805 311.258 268.805C306.477 268.805 301.697 267.007 298.052 263.356C291.623 256.955 290.862 247.011 295.762 239.765C296.423 238.784 297.184 237.858 298.052 236.986C301.697 233.336 306.477 231.538 311.258 231.538V206.584C292.889 206.584 278 221.431 278 239.765C278 258.099 292.889 272.973 311.258 272.973C320.835 272.973 329.462 268.914 335.53 262.457V239.765H326.753Z" fill="white" fill-opacity="0.5"/>
</g>
<defs>
<clipPath id="clip0_25_242">
<rect width="686" height="273" fill="white"/>
</clipPath>
</defs>
</svg>
